<?xml version="1.0" standalone="no"?>
<!DOCTYPE svg PUBLIC "-//W3C//DTD SVG 20010904//EN"
 "http://www.w3.org/TR/2001/REC-SVG-20010904/DTD/svg10.dtd">
<svg version="1.0" xmlns="http://www.w3.org/2000/svg"
 width="497.000000pt" height="502.000000pt" viewBox="0 0 497.000000 502.000000"
 preserveAspectRatio="xMidYMid meet">

<g transform="translate(0.000000,502.000000) scale(0.100000,-0.100000)"
fill="#000000" stroke="none">
<path d="M2188 4973 c7 -3 16 -2 19 1 4 3 -2 6 -13 5 -11 0 -14 -3 -6 -6z"/>
<path d="M2118 4963 c7 -3 16 -2 19 1 4 3 -2 6 -13 5 -11 0 -14 -3 -6 -6z"/>
<path d="M2030 4950 c-20 -6 -21 -8 -5 -8 11 0 34 4 50 8 27 7 27 8 5 8 -14 0
-36 -4 -50 -8z"/>
<path d="M2228 4938 c9 -9 15 -9 24 0 9 9 7 12 -12 12 -19 0 -21 -3 -12 -12z"/>
<path d="M2332 4938 c-6 -9 -4 -19 9 -32 17 -17 19 -17 25 -2 13 34 -13 60
-34 34z"/>
<path d="M1935 4930 c-24 -5 -26 -8 -13 -14 9 -4 29 -1 45 8 30 16 18 18 -32
6z"/>
<path d="M2128 4933 c7 -3 16 -2 19 1 4 3 -2 6 -13 5 -11 0 -14 -3 -6 -6z"/>
<path d="M2408 4933 c7 -3 16 -2 19 1 4 3 -2 6 -13 5 -11 0 -14 -3 -6 -6z"/>
<path d="M1878 4913 c7 -3 16 -2 19 1 4 3 -2 6 -13 5 -11 0 -14 -3 -6 -6z"/>
<path d="M2136 4903 c-11 -28 -6 -36 12 -21 9 9 24 17 32 20 9 3 5 7 -12 10
-18 3 -29 0 -32 -9z"/>
<path d="M2227 4913 c-12 -11 -8 -21 13 -26 22 -6 23 -5 14 17 -7 17 -16 20
-27 9z"/>
<path d="M2815 4880 c8 -52 10 -54 24 -45 14 8 3 55 -16 75 -13 13 -14 10 -8
-30z"/>
<path d="M1753 4881 c-29 -9 -55 -19 -58 -22 -10 -10 89 15 110 28 27 16 11
15 -52 -6z"/>
<path d="M2090 4890 c0 -5 5 -10 10 -10 6 0 10 5 10 10 0 6 -4 10 -10 10 -5 0
-10 -4 -10 -10z"/>
<path d="M1885 4880 c4 -7 -3 -9 -22 -5 -20 5 -24 4 -14 -3 9 -7 11 -16 6 -28
-5 -11 -7 -23 -6 -29 1 -5 -7 -1 -18 9 -15 13 -18 23 -11 31 8 9 4 12 -12 11
-19 -1 -22 -6 -20 -28 1 -16 -3 -28 -13 -32 -8 -3 -15 -13 -15 -23 0 -15 -1
-16 -12 0 -11 13 -16 14 -30 3 -15 -11 -15 -14 6 -40 l22 -28 31 31 c19 19 42
31 58 31 14 0 28 6 31 14 3 9 15 13 30 10 13 -2 24 0 24 5 0 5 9 11 20 14 25
6 27 27 3 27 -10 0 -25 5 -33 10 -13 9 -13 11 0 20 12 8 11 10 -8 10 -14 0
-21 -4 -17 -10z m22 -36 c-3 -3 -12 -4 -19 -1 -8 3 -5 6 6 6 11 1 17 -2 13 -5z"/>
<path d="M2055 4880 c4 -6 11 -8 16 -5 14 9 11 15 -7 15 -8 0 -12 -5 -9 -10z"/>
<path d="M1975 4870 c-19 -8 -19 -9 3 -9 12 -1 22 4 22 9 0 6 -1 10 -2 9 -2 0
-12 -4 -23 -9z"/>
<path d="M2238 4820 c2 -22 6 -40 8 -40 2 0 4 18 4 40 0 22 -3 40 -8 40 -4 0
-6 -18 -4 -40z"/>
<path d="M1570 4790 c0 -5 7 -7 15 -4 8 4 15 8 15 10 0 2 -7 4 -15 4 -8 0 -15
-4 -15 -10z"/>
<path d="M1618 4783 c23 -17 2 -45 -30 -41 -16 3 -31 1 -34 -4 -3 -4 -17 -8
-32 -8 l-27 -1 25 -14 c14 -8 21 -14 16 -15 -6 0 -5 -5 1 -11 14 -14 53 -2 53
17 0 8 -4 12 -10 9 -5 -3 -10 -1 -10 5 0 14 43 8 63 -9 22 -18 40 -5 27 19 -5
10 -7 26 -4 34 3 9 2 16 -4 16 -6 0 -19 3 -29 6 -13 4 -14 3 -5 -3z"/>
<path d="M1422 4747 c-21 -12 -21 -27 1 -27 6 0 7 3 3 7 -3 4 4 13 16 20 13 7
19 12 13 12 -5 0 -20 -5 -33 -12z"/>
<path d="M2248 4753 c-8 -14 4 -93 14 -93 5 0 6 19 2 48 -7 51 -10 58 -16 45z"/>
<path d="M2420 4729 c0 -11 5 -17 10 -14 6 3 10 13 10 21 0 8 -4 14 -10 14 -5
0 -10 -9 -10 -21z"/>
<path d="M2902 4739 c2 -7 10 -15 17 -17 8 -3 12 1 9 9 -2 7 -10 15 -17 17 -8
3 -12 -1 -9 -9z"/>
<path d="M1450 4666 c0 -8 3 -22 6 -30 6 -15 8 -15 20 1 19 26 17 43 -6 43
-11 0 -20 -6 -20 -14z"/>
<path d="M1920 4670 c0 -5 7 -10 15 -10 8 0 15 5 15 10 0 6 -7 10 -15 10 -8 0
-15 -4 -15 -10z"/>
<path d="M1345 4637 c-16 -18 -16 -20 -1 -14 16 7 25 -4 30 -37 3 -25 16 -31
16 -8 0 11 8 26 18 31 9 6 12 11 5 11 -6 0 -14 8 -17 18 -8 24 -30 24 -51 -1z"/>
<path d="M1262 4641 c-11 -7 -10 -10 3 -15 26 -10 35 -7 29 9 -7 17 -13 18
-32 6z"/>
<path d="M2260 4630 c0 -5 6 -10 14 -10 8 0 18 5 21 10 3 6 -3 10 -14 10 -12
0 -21 -4 -21 -10z"/>
<path d="M1998 4623 c7 -3 16 -2 19 1 4 3 -2 6 -13 5 -11 0 -14 -3 -6 -6z"/>
<path d="M1660 4605 c0 -8 5 -15 10 -15 6 0 10 7 10 15 0 8 -4 15 -10 15 -5 0
-10 -7 -10 -15z"/>
<path d="M1940 4616 c0 -9 30 -14 35 -6 4 6 -3 10 -14 10 -12 0 -21 -2 -21 -4z"/>
<path d="M2363 4613 c11 -11 -14 -33 -38 -33 -48 0 -74 -24 -37 -33 10 -3 6
-5 -10 -6 -23 -1 -28 -6 -28 -26 0 -19 -8 -28 -35 -39 -19 -8 -35 -22 -35 -30
0 -9 -4 -16 -10 -16 -5 0 -10 9 -10 19 0 10 -7 22 -16 25 -15 6 -15 8 0 25 19
21 11 31 -19 22 -12 -3 -20 -14 -20 -26 0 -37 -73 -32 -94 7 -9 18 -20 23 -49
23 -33 0 -37 -3 -40 -28 -3 -26 -5 -27 -16 -11 -21 28 -43 10 -49 -38 -5 -49
-14 -88 -21 -96 -3 -2 -12 -2 -21 1 -11 5 -15 21 -15 61 0 60 -11 77 -32 48
-7 -10 -31 -22 -53 -25 -26 -4 -46 -15 -58 -32 -13 -17 -28 -25 -48 -25 -20 0
-29 -5 -29 -16 0 -24 -28 -46 -58 -46 -15 0 -33 -9 -40 -19 -15 -21 -42 -25
-59 -8 -8 8 -13 8 -17 0 -9 -13 -46 -15 -46 -2 0 6 5 13 10 16 17 10 11 21
-16 34 -15 6 -27 10 -28 9 -10 -17 -26 -62 -26 -73 0 -8 9 -15 20 -15 12 0 20
-7 20 -16 0 -9 -9 -18 -20 -21 -11 -3 -20 -14 -20 -25 0 -10 -4 -16 -10 -13
-5 3 -10 19 -10 36 0 16 -5 29 -10 29 -6 0 -10 8 -8 18 2 9 -3 17 -9 16 -7 -1
-22 -2 -33 -2 -11 -1 -20 -6 -20 -12 0 -5 9 -10 20 -10 11 0 20 -7 20 -15 0
-8 -9 -15 -20 -15 -32 0 -24 -30 10 -36 31 -7 36 -18 21 -43 -6 -9 -11 -10
-15 -2 -4 6 -16 11 -26 11 -10 0 -23 7 -28 16 -8 14 -11 13 -28 -7 -26 -32
-79 -69 -99 -69 -12 0 -15 -13 -15 -60 0 -57 -1 -60 -25 -60 -30 0 -33 16 -5
25 11 3 20 11 20 16 0 15 -37 10 -44 -6 -3 -8 -10 -15 -16 -15 -5 0 -10 7 -10
15 0 8 -4 15 -10 15 -12 0 -13 -17 -2 -24 24 -15 5 -166 -20 -166 -5 0 -8 -16
-8 -36 0 -21 -4 -33 -10 -29 -6 4 -13 -7 -16 -24 -4 -16 -12 -32 -20 -35 -24
-9 -17 -54 9 -59 18 -4 17 -5 -6 -6 -22 -1 -28 -5 -25 -18 2 -10 10 -17 16
-15 7 1 12 -5 12 -13 0 -9 -6 -12 -15 -9 -8 4 -15 1 -15 -5 0 -6 7 -11 15 -11
8 0 15 -9 15 -20 0 -13 -7 -20 -20 -20 -11 0 -20 -4 -20 -10 0 -5 -13 -10 -28
-10 -26 0 -62 -25 -62 -43 0 -15 40 -6 49 11 9 15 13 15 31 4 20 -12 21 -11
15 7 -4 15 -1 23 10 27 23 9 38 -9 42 -53 5 -62 13 -83 28 -83 8 0 15 7 15 15
0 8 5 15 11 15 6 0 9 -8 7 -17 -3 -14 -13 -18 -46 -18 -40 0 -42 -2 -37 -22 3
-13 1 -23 -5 -23 -5 0 -10 -9 -10 -20 0 -24 8 -25 31 -4 10 9 15 22 12 30 -3
9 1 14 12 14 9 0 15 -6 12 -12 -2 -7 0 -21 5 -30 5 -11 5 -26 -2 -39 -11 -20
-12 -20 -31 -3 -18 16 -19 16 -19 -3 0 -14 10 -24 30 -32 31 -10 39 -26 18
-34 -7 -2 -23 0 -35 4 -18 7 -28 3 -48 -19 -29 -31 -31 -42 -10 -42 8 0 15 -4
15 -10 0 -5 -7 -10 -15 -10 -17 0 -20 -16 -5 -25 15 -9 12 -25 -6 -32 -9 -3
-20 0 -24 7 -7 11 -11 11 -24 1 -8 -7 -13 -18 -10 -25 3 -8 -6 -16 -23 -21
-15 -4 -22 -10 -15 -12 14 -6 16 -33 2 -33 -5 0 -10 -6 -10 -14 0 -8 -6 -16
-13 -19 -17 -6 -15 -49 1 -55 7 -2 12 -12 12 -22 0 -10 6 -21 13 -23 8 -4 9
-8 1 -14 -6 -4 -14 -15 -17 -23 -3 -9 -6 -4 -6 13 -1 15 -6 27 -11 27 -7 0
-10 -26 -8 -67 3 -60 5 -68 23 -68 14 0 20 -7 21 -23 1 -13 6 -28 13 -35 21
-21 13 -66 -14 -79 -25 -11 -34 -41 -16 -53 6 -3 13 -27 16 -53 4 -26 10 -62
15 -79 5 -20 5 -35 -1 -39 -6 -3 -7 -30 -3 -65 4 -40 3 -63 -5 -73 -19 -23 -4
-86 21 -86 17 0 19 -4 12 -32 -16 -68 2 -208 27 -208 13 0 58 -52 59 -67 0 -7
-4 -13 -10 -13 -6 0 -5 -10 2 -25 9 -20 19 -25 45 -25 20 0 32 -4 28 -10 -3
-5 -15 -10 -25 -10 -44 0 -36 -49 12 -69 l33 -14 -28 -4 c-16 -3 -34 1 -42 7
-27 23 -35 -1 -10 -28 14 -15 25 -36 25 -48 0 -12 7 -27 15 -34 8 -7 15 -19
15 -26 0 -8 9 -14 20 -14 13 0 20 -7 20 -20 0 -23 6 -24 65 -9 56 14 95 5 95
-21 0 -11 -4 -20 -10 -20 -5 0 -10 -5 -10 -11 0 -20 26 -37 51 -33 13 3 31 0
39 -6 13 -9 13 -11 0 -20 -8 -6 -28 -8 -44 -5 -25 4 -28 2 -23 -15 4 -17 0
-20 -23 -20 -34 0 -50 -19 -23 -26 11 -3 24 -18 30 -32 l11 -27 1 25 c3 49 61
87 61 40 0 -11 -5 -20 -11 -20 -6 0 -8 -7 -5 -15 20 -50 20 -48 -4 -33 -16 9
-24 10 -27 2 -2 -7 -20 -10 -43 -8 -22 2 -40 0 -40 -5 0 -13 25 -20 39 -11 12
7 33 2 95 -20 12 -4 34 1 56 14 33 17 41 18 68 7 18 -8 32 -20 32 -27 0 -8 5
-14 10 -14 6 0 10 5 10 10 0 6 5 10 11 10 8 0 8 -5 -1 -15 -10 -12 -9 -22 4
-49 9 -19 16 -41 16 -50 0 -18 15 -21 25 -6 8 13 25 13 25 -1 0 -6 14 -24 30
-41 36 -35 38 -48 8 -49 -21 -1 -20 -2 4 -9 15 -4 35 -16 44 -25 17 -17 66
-13 72 6 2 5 8 7 13 3 12 -7 -15 -34 -35 -34 -9 0 -16 -4 -16 -10 0 -5 13 -10
28 -10 26 0 46 -14 80 -54 10 -13 9 -19 -7 -35 -11 -11 -22 -17 -25 -13 -3 3
-6 -4 -6 -16 0 -18 6 -22 29 -22 27 0 29 3 28 35 -1 43 5 50 31 34 15 -10 24
-10 34 -1 14 11 58 6 58 -8 0 -4 -10 -14 -22 -23 -23 -15 -23 -15 15 -22 20
-4 37 -11 37 -15 0 -5 8 -11 18 -13 9 -3 -4 -5 -30 -6 -26 0 -50 -5 -53 -11
-9 -15 -25 -12 -25 4 0 8 10 17 23 19 15 3 12 5 -11 6 -31 1 -33 -1 -30 -26 2
-16 8 -27 16 -25 17 3 72 -48 66 -63 -8 -19 41 -45 86 -45 25 0 39 -4 35 -10
-4 -6 7 -10 25 -10 25 0 31 4 26 15 -3 8 -1 15 4 15 6 0 10 -7 10 -15 0 -8 6
-15 14 -15 7 0 19 -7 26 -15 7 -9 19 -14 27 -11 7 3 13 -1 13 -8 0 -17 22 -26
60 -26 38 0 60 -9 60 -26 0 -8 10 -14 24 -14 14 0 28 -4 31 -10 10 -16 25 -11
25 8 0 11 -10 24 -22 29 -22 10 -20 11 21 24 39 12 41 14 21 21 -30 11 -18 22
15 14 14 -4 25 -13 25 -22 0 -11 6 -13 19 -9 11 3 26 -1 35 -10 15 -15 17 -14
26 9 13 34 29 33 41 -4 10 -27 12 -28 26 -14 11 10 25 14 42 9 14 -3 34 -6 44
-6 9 0 17 -4 17 -10 0 -17 15 -9 33 19 l18 27 -3 -25 c-3 -22 1 -26 37 -30 32
-4 40 -10 45 -30 6 -23 7 -24 17 -6 7 14 18 17 37 14 14 -3 26 -1 26 3 0 5 -5
9 -11 9 -6 0 -4 7 5 15 8 8 21 15 29 15 10 0 13 7 10 20 -5 17 0 20 26 20 24
0 31 4 31 19 0 12 9 21 26 25 24 6 25 8 9 20 -23 17 -4 30 31 22 19 -5 24 -3
24 14 0 16 7 20 33 21 l32 1 -32 10 c-18 6 -33 15 -33 19 0 5 -6 9 -14 9 -8 0
-16 7 -20 15 -7 20 -26 19 -26 -1 0 -24 -24 -11 -34 19 -12 34 -7 38 49 44 25
3 45 10 45 15 0 6 14 8 30 6 18 -3 35 1 41 9 6 7 8 13 4 13 -4 0 3 9 16 19 20
16 25 17 32 5 4 -8 5 -19 2 -24 -3 -6 -1 -10 4 -10 6 0 11 9 11 20 0 28 19 25
30 -5 11 -28 20 -31 38 -13 9 9 12 8 12 -5 0 -9 5 -17 10 -17 6 0 10 14 10 30
0 17 -5 30 -10 30 -6 0 -9 18 -8 42 2 33 10 49 33 70 27 25 36 27 84 23 49 -4
53 -3 48 16 -4 15 1 23 19 29 17 7 23 16 21 32 -2 19 2 23 23 21 73 -6 115 21
73 46 -16 9 -16 10 -1 11 9 0 18 6 21 13 3 9 9 9 30 -2 14 -8 25 -18 24 -24
-3 -14 15 -18 32 -8 10 7 11 13 2 27 -8 15 -11 15 -11 4 -2 -31 -19 26 -19 67
-1 24 -6 43 -13 46 -10 3 -10 7 -1 19 7 8 10 18 7 21 -3 3 10 12 29 20 19 8
38 20 41 26 10 16 36 13 36 -4 0 -8 -4 -15 -10 -15 -19 0 -10 -21 13 -30 20
-8 19 -9 -10 -9 -18 -1 -33 -5 -33 -10 0 -12 19 -18 60 -17 25 1 36 6 38 19 2
11 -3 17 -15 18 -15 0 -14 2 5 11 12 6 22 15 22 20 0 4 9 8 19 8 26 0 35 16
14 24 -9 4 -20 1 -24 -5 -4 -6 -12 -8 -18 -5 -34 21 32 36 70 16 13 -7 25 -8
37 -1 14 9 11 10 -16 11 -20 0 -31 4 -27 10 4 7 -7 9 -30 6 -29 -4 -34 -2 -25
9 13 16 90 25 90 10 1 -21 31 31 41 70 5 22 21 62 35 88 13 27 24 59 24 72 0
14 7 25 20 28 17 4 20 0 20 -24 0 -16 -4 -29 -10 -29 -5 0 -10 -7 -10 -15 0
-7 -8 -18 -17 -24 -28 -16 -2 -37 26 -21 12 6 31 8 41 5 22 -7 49 13 43 32 -2
6 1 14 6 18 6 3 11 25 11 48 0 23 4 37 8 31 4 -6 23 -9 45 -6 31 3 37 8 37 28
0 13 3 24 6 24 12 0 35 -30 29 -39 -8 -13 24 -29 46 -24 11 3 19 14 19 24 0
11 7 19 18 20 9 0 12 3 6 5 -15 6 -5 45 14 59 7 6 17 36 21 65 6 53 7 54 20
31 l14 -24 13 24 c7 13 13 32 14 42 0 13 8 17 36 17 21 0 33 4 29 10 -3 6 -17
7 -31 4 -21 -6 -24 -3 -23 22 1 17 3 22 6 12 5 -21 10 -22 52 -7 25 9 31 16
31 40 0 20 -5 29 -16 29 -12 0 -15 -6 -11 -21 5 -18 2 -20 -16 -15 -12 3 -25
6 -29 6 -15 0 -8 20 7 20 8 0 19 9 26 21 7 14 17 19 30 16 12 -3 19 0 19 10 0
8 4 12 9 9 4 -3 11 18 14 47 4 28 11 53 17 55 16 6 12 52 -6 59 -11 4 -15 17
-12 47 3 36 8 43 38 58 34 16 34 17 12 24 -16 4 -20 9 -12 14 8 5 3 10 -13 14
-19 4 -24 11 -20 26 3 12 14 20 27 20 17 0 18 2 6 10 -10 6 -11 10 -2 10 6 0
12 10 12 23 0 13 6 29 12 35 10 10 10 14 0 21 -7 4 -10 16 -6 27 5 16 4 16 -5
4 -10 -13 -13 -12 -27 5 -8 11 -17 30 -21 43 -3 12 -11 22 -19 22 -8 0 -14 4
-14 9 0 5 9 7 20 4 16 -4 20 0 20 21 0 24 -4 26 -39 26 -58 0 -68 6 -63 39 2
16 -1 32 -7 35 -15 10 -14 43 1 48 9 3 8 9 -4 21 -9 9 -21 17 -26 17 -5 0 -14
12 -21 26 -7 17 -17 24 -26 20 -11 -4 -15 3 -16 27 -1 18 -3 57 -4 87 -3 78
-3 80 -20 80 -8 0 -15 4 -15 9 0 5 -12 11 -27 14 -34 7 -55 -16 -47 -49 6 -24
-11 -64 -27 -64 -14 0 -41 28 -30 32 4 2 11 14 15 28 3 14 3 20 0 14 -3 -8
-20 -10 -44 -7 -28 4 -40 2 -40 -6 0 -8 -5 -7 -15 3 -8 8 -15 27 -15 41 0 22
4 26 20 22 11 -3 20 -2 20 3 0 4 -13 10 -29 13 -23 5 -30 13 -35 42 -6 29 -11
35 -24 30 -9 -3 -14 -3 -10 0 3 4 2 19 -2 35 -7 24 -5 30 11 35 28 9 23 27
-11 47 -29 16 -30 16 -30 -1 0 -10 10 -23 23 -29 18 -9 19 -11 4 -11 -20 -1
-47 21 -47 38 0 6 -6 11 -12 11 -9 0 -8 4 2 11 11 8 12 12 3 16 -7 2 -13 12
-13 20 0 9 -8 23 -18 32 -10 9 -21 24 -25 34 -4 10 -11 16 -16 12 -6 -3 -8
-12 -4 -20 3 -8 0 -15 -6 -15 -6 0 -11 8 -11 19 0 10 -7 24 -15 31 -8 7 -15
19 -15 27 0 8 -4 12 -9 8 -5 -3 -12 -1 -16 5 -3 6 4 10 18 10 20 0 23 4 19 30
-2 17 -10 30 -18 30 -8 0 -14 5 -14 10 0 6 -9 10 -20 10 -32 0 -37 30 -10 52
15 12 20 22 13 26 -6 4 -14 18 -18 32 -13 44 -25 52 -50 36 -22 -15 -23 -14
-33 27 -8 29 -8 43 0 48 11 7 5 43 -10 67 -5 7 -27 13 -49 14 -36 0 -39 3 -35
23 5 28 -30 44 -54 24 -12 -10 -18 -9 -32 5 -11 10 -13 19 -7 24 6 4 17 21 25
37 8 17 19 33 25 37 5 4 -5 10 -22 14 -28 5 -33 11 -33 35 0 25 -3 27 -22 20
-27 -10 -36 -31 -13 -31 11 0 15 -5 11 -15 -3 -10 1 -15 12 -15 15 -1 15 -2
-1 -11 -18 -11 -75 -3 -63 8 12 12 -17 33 -46 33 -16 0 -31 6 -34 14 -6 15
-34 28 -106 46 -26 7 -55 21 -64 31 -16 18 -16 19 5 27 l22 8 -23 25 c-22 24
-71 59 -83 59 -3 0 -5 -6 -5 -14 0 -7 -11 -22 -25 -32 -14 -10 -25 -28 -25
-38 0 -19 1 -19 13 -2 8 11 21 16 33 13 17 -4 16 -5 -3 -6 -15 -1 -23 -7 -23
-20 0 -10 -7 -24 -15 -31 -12 -10 -20 -7 -45 20 l-30 33 -19 -22 c-19 -22 -19
-22 -26 -2 -3 12 -10 21 -15 21 -5 0 -8 24 -7 53 l2 52 -33 3 c-18 2 -30 7
-27 12 8 13 -14 23 -28 12 -14 -12 -47 8 -47 28 0 8 -8 10 -21 7 -21 -6 -49
12 -49 31 0 18 -32 23 -44 6 -7 -9 -21 -14 -32 -12 -19 4 -21 10 -9 40 5 11 0
18 -17 24 -22 7 -22 7 -3 15 19 7 18 8 -3 8 -16 1 -26 -6 -29 -20 -5 -16 -12
-20 -34 -17 -21 3 -29 0 -29 -10 0 -12 -3 -12 -16 -1 -9 7 -37 13 -62 14 -49
0 -69 19 -28 27 14 3 27 1 28 -4 2 -5 23 -8 48 -6 42 3 43 4 26 21 -15 14 -27
17 -57 12 -32 -6 -39 -4 -39 9 0 9 -5 16 -12 16 -6 0 -8 -3 -5 -7z m95 -102
c-2 -9 -15 -17 -31 -19 -21 -3 -27 1 -27 16 0 26 6 30 36 24 16 -3 24 -10 22
-21z m-518 -65 c0 -8 -4 -18 -10 -21 -5 -3 -10 3 -10 14 0 12 5 21 10 21 6 0
10 -6 10 -14z m60 -7 c0 -11 -4 -17 -10 -14 -5 3 -10 13 -10 21 0 8 5 14 10
14 6 0 10 -9 10 -21z m740 17 c0 -3 -4 -8 -10 -11 -5 -3 -10 -1 -10 4 0 6 5
11 10 11 6 0 10 -2 10 -4z m-245 -46 c3 -5 -1 -10 -10 -10 -9 0 -13 5 -10 10
3 6 8 10 10 10 2 0 7 -4 10 -10z m145 -10 c0 -5 -4 -10 -9 -10 -6 0 -13 5 -16
10 -3 6 1 10 9 10 9 0 16 -4 16 -10z m95 -20 c3 -5 1 -10 -4 -10 -6 0 -11 5
-11 10 0 6 2 10 4 10 3 0 8 -4 11 -10z m-715 -10 c-14 -4 -34 -8 -45 -8 -16 0
-15 2 5 8 14 4 34 8 45 8 16 0 15 -2 -5 -8z m-80 -20 c0 -5 -4 -10 -10 -10 -5
0 -10 5 -10 10 0 6 5 10 10 10 6 0 10 -4 10 -10z m105 -10 c-28 -12 -45 -12
-45 0 0 6 15 10 33 9 27 0 29 -2 12 -9z m-85 -23 c-14 -6 -28 -16 -32 -22 -5
-6 -8 -3 -8 7 0 16 18 25 50 26 8 0 4 -5 -10 -11z m-265 -7 c3 -5 1 -10 -4
-10 -6 0 -11 5 -11 10 0 6 2 10 4 10 3 0 8 -4 11 -10z m180 -20 c-28 -12 -47
-12 -40 0 3 6 18 10 33 9 24 0 25 -1 7 -9z m-381 -39 c3 -5 -9 -11 -28 -13
-24 -3 -32 0 -29 9 6 15 49 18 57 4z m1481 -21 c3 -5 1 -10 -4 -10 -6 0 -11 5
-11 10 0 6 2 10 4 10 3 0 8 -4 11 -10z m225 -20 c0 -5 -4 -10 -9 -10 -6 0 -13
5 -16 10 -3 6 1 10 9 10 9 0 16 -4 16 -10z m160 -60 c0 -5 -6 -10 -14 -10 -8
0 -18 5 -21 10 -3 6 3 10 14 10 12 0 21 -4 21 -10z m-2167 -7 c-7 -2 -19 -2
-25 0 -7 3 -2 5 12 5 14 0 19 -2 13 -5z m-116 -130 c-3 -3 -11 -2 -17 2 -8 5
-7 11 2 22 12 15 13 14 16 -1 2 -10 1 -20 -1 -23z m2465 -8 c0 -5 -5 -11 -11
-13 -6 -2 -11 4 -11 13 0 9 5 15 11 13 6 -2 11 -8 11 -13z m-2532 -86 c0 -14
-5 -19 -17 -17 -26 5 -29 38 -4 38 15 0 21 -6 21 -21z m-57 -216 c-7 -31 -21
-29 -29 4 -5 17 -3 28 4 31 7 2 13 18 13 35 1 30 2 30 9 -8 5 -22 6 -50 3 -62z
m57 -53 c0 -5 -7 -7 -15 -4 -8 4 -15 8 -15 10 0 2 7 4 15 4 8 0 15 -4 15 -10z
m-50 -40 c0 -5 -4 -10 -10 -10 -5 0 -10 5 -10 10 0 6 5 10 10 10 6 0 10 -4 10
-10z m0 -40 c0 -5 -4 -10 -10 -10 -5 0 -10 5 -10 10 0 6 5 10 10 10 6 0 10 -4
10 -10z m2820 -80 c0 -5 -4 -10 -10 -10 -5 0 -10 5 -10 10 0 6 5 10 10 10 6 0
10 -4 10 -10z m57 -62 c-3 -8 -6 -5 -6 6 -1 11 2 17 5 13 3 -3 4 -12 1 -19z
m-1133 -98 c283 -75 501 -292 587 -585 33 -114 34 -324 1 -439 -71 -249 -245
-446 -481 -546 -154 -66 -353 -79 -523 -36 -294 75 -525 308 -599 606 -26 103
-29 271 -6 375 74 342 353 596 712 649 62 9 233 -4 309 -24z m1243 -1 c7 -18
10 -36 6 -42 -4 -6 -1 -7 7 -2 10 6 11 2 6 -19 -4 -15 -2 -26 4 -26 5 0 10 -4
10 -10 0 -5 -9 -10 -20 -10 -20 0 -25 17 -21 67 1 13 -8 28 -21 38 -20 13 -21
17 -8 25 22 14 25 13 37 -21z m323 -184 c0 -16 -6 -25 -15 -25 -18 0 -20 21
-3 38 17 17 18 16 18 -13z m-60 -135 c0 -5 -4 -10 -10 -10 -5 0 -10 5 -10 10
0 6 5 10 10 10 6 0 10 -4 10 -10z m10 -80 c0 -5 -7 -10 -15 -10 -8 0 -15 5
-15 10 0 6 7 10 15 10 8 0 15 -4 15 -10z m80 6 c0 -3 -4 -8 -10 -11 -5 -3 -10
-1 -10 4 0 6 5 11 10 11 6 0 10 -2 10 -4z m-57 -89 c17 -17 20 -40 6 -35 -12
4 -33 48 -23 48 3 0 11 -6 17 -13z m77 -37 c0 -5 -4 -10 -10 -10 -5 0 -10 5
-10 10 0 6 5 10 10 10 6 0 10 -4 10 -10z m135 -90 c-3 -5 -10 -10 -16 -10 -5
0 -9 5 -9 10 0 6 7 10 16 10 8 0 12 -4 9 -10z m25 -430 c0 -5 -7 -7 -15 -4 -8
4 -15 8 -15 10 0 2 7 4 15 4 8 0 15 -4 15 -10z m0 -60 c0 -5 -5 -10 -11 -10
-5 0 -7 5 -4 10 3 6 8 10 11 10 2 0 4 -4 4 -10z m-470 -321 c0 -5 -7 -9 -15
-9 -15 0 -20 12 -9 23 8 8 24 -1 24 -14z m60 -59 c0 -5 -4 -10 -10 -10 -5 0
-10 5 -10 10 0 6 5 10 10 10 6 0 10 -4 10 -10z m56 -15 c18 -14 17 -14 -13
-15 -23 0 -33 5 -33 15 0 19 21 19 46 0z m114 -35 c0 -24 -6 -25 -26 -6 -19
20 -18 26 6 26 13 0 20 -7 20 -20z m-310 -102 c0 -30 -4 -38 -18 -38 -18 0
-42 -37 -42 -65 0 -19 -17 -19 -36 -1 -22 22 -17 35 26 75 22 20 41 47 44 61
2 14 5 27 5 30 4 19 21 -32 21 -62z m60 52 c0 -5 -11 -10 -25 -10 -14 0 -25 5
-25 10 0 6 11 10 25 10 14 0 25 -4 25 -10z m20 -111 c0 -5 -4 -9 -10 -9 -5 0
-10 7 -10 16 0 8 5 12 10 9 6 -3 10 -10 10 -16z m-180 -91 c0 -7 3 -22 6 -33
4 -18 0 -20 -40 -19 -25 0 -49 3 -52 7 -11 10 6 26 22 20 10 -4 17 2 21 16 6
22 43 30 43 9z m-2489 -187 c20 -18 20 -18 -18 -17 -36 0 -38 2 -24 18 19 22
17 22 42 -1z m59 -62 c0 -6 -4 -7 -10 -4 -5 3 -10 11 -10 16 0 6 5 7 10 4 6
-3 10 -11 10 -16z m2155 -49 c-3 -5 -12 -7 -20 -3 -21 7 -19 13 6 13 11 0 18
-4 14 -10z m-35 -20 c0 -5 -11 -10 -25 -10 -14 0 -25 5 -25 10 0 6 11 10 25
10 14 0 25 -4 25 -10z m-159 -123 c-10 -9 -11 -8 -5 6 3 10 9 15 12 12 3 -3 0
-11 -7 -18z m-258 -94 c-7 -2 -19 -2 -25 0 -7 3 -2 5 12 5 14 0 19 -2 13 -5z
m22 -44 c9 -28 -1 -35 -30 -19 -19 10 -22 16 -14 27 17 19 37 16 44 -8z m75
-19 c0 -5 -5 -10 -11 -10 -5 0 -7 5 -4 10 3 6 8 10 11 10 2 0 4 -4 4 -10z
m-1280 -210 c0 -5 -4 -10 -10 -10 -5 0 -10 5 -10 10 0 6 5 10 10 10 6 0 10 -4
10 -10z m60 -10 c0 -5 -4 -10 -10 -10 -5 0 -10 5 -10 10 0 6 5 10 10 10 6 0
10 -4 10 -10z m943 -24 c3 -8 -2 -16 -11 -19 -9 -3 -26 -8 -37 -12 -18 -7 -17
-5 4 18 28 31 37 33 44 13z m42 4 c3 -5 -1 -10 -10 -10 -9 0 -13 5 -10 10 3 6
8 10 10 10 2 0 7 -4 10 -10z m-801 -28 c3 -5 -8 -6 -25 -4 -16 2 -29 6 -29 8
0 8 49 4 54 -4z m56 -12 c0 -5 -4 -10 -10 -10 -5 0 -10 5 -10 10 0 6 5 10 10
10 6 0 10 -4 10 -10z m617 4 c-3 -3 -12 -4 -19 -1 -8 3 -5 6 6 6 11 1 17 -2
13 -5z m-492 -14 c-3 -5 -10 -10 -16 -10 -5 0 -9 5 -9 10 0 6 7 10 16 10 8 0
12 -4 9 -10z m188 -17 c-7 -2 -19 -2 -25 0 -7 3 -2 5 12 5 14 0 19 -2 13 -5z
m301 -31 c-21 -5 -38 20 -21 30 7 4 18 0 25 -10 11 -14 10 -18 -4 -20z m-275
-19 c-1 -17 -3 -21 -6 -10 -3 11 -14 17 -33 17 -19 0 -30 -6 -33 -17 -3 -11
-5 -7 -6 10 -1 25 2 27 39 27 37 0 40 -2 39 -27z m-159 3 c0 -7 -9 -16 -20
-19 -15 -4 -20 0 -20 14 0 12 7 19 20 19 11 0 20 -6 20 -14z m-266 -11 c4 -10
-1 -15 -14 -15 -13 0 -18 5 -14 15 4 8 10 15 14 15 4 0 10 -7 14 -15z m606
-39 c0 -3 -4 -8 -10 -11 -5 -3 -10 -1 -10 4 0 6 5 11 10 11 6 0 10 -2 10 -4z"/>
<path d="M2368 3120 c-16 -10 -18 -30 -18 -175 0 -195 -17 -177 170 -173 l125
3 8 159 c6 125 5 162 -5 172 -18 16 -257 28 -280 14z m116 -26 c13 -5 16 -25
16 -120 l0 -114 -33 0 c-22 0 -34 -5 -34 -14 0 -10 12 -13 44 -11 36 1 43 -1
43 -17 0 -20 -17 -20 -38 0 -8 7 -17 10 -20 7 -4 -3 0 -10 8 -15 11 -7 6 -9
-17 -7 -28 2 -33 6 -33 29 0 20 -6 27 -22 30 -18 2 -23 9 -22 33 1 17 2 69 3
118 l1 87 44 0 c24 0 51 -3 60 -6z m135 -18 c7 -8 11 -29 9 -46 l-3 -31 -45
45 -44 46 36 0 c19 0 41 -6 47 -14z m-45 -69 c11 -8 17 -23 14 -38 -2 -19 -10
-25 -35 -27 -28 -3 -33 0 -39 24 -5 20 -2 31 11 41 23 16 27 16 49 0z m56 -83
c0 -44 -17 -64 -55 -64 -19 0 -35 3 -35 7 0 10 72 83 82 83 4 0 8 -12 8 -26z
m-87 -99 c-3 -8 0 -15 6 -15 6 0 11 7 11 15 0 8 4 15 9 15 5 0 7 -9 4 -20 -8
-31 -43 -26 -43 6 0 14 4 23 10 19 5 -3 7 -12 3 -20z m-135 -8 c2 -10 -3 -17
-11 -17 -16 0 -30 24 -19 34 10 10 27 1 30 -17z m212 3 c0 -13 -7 -20 -20 -20
-22 0 -23 1 -14 24 9 23 34 20 34 -4z"/>
<path d="M2390 2981 c0 -108 0 -108 60 -107 l35 1 3 103 3 102 -51 0 -50 0 0
-99z"/>
<path d="M2582 3054 c15 -15 31 -25 35 -20 12 12 -12 41 -38 44 l-24 4 27 -28z"/>
<path d="M2535 2997 c-23 -17 -14 -47 15 -47 26 0 37 27 18 46 -12 12 -17 12
-33 1z"/>
<path d="M2579 2894 l-24 -26 24 4 c14 2 27 13 32 26 11 29 -2 28 -32 -4z"/>
<path d="M3056 2522 c-2 -4 9 -8 25 -9 16 -1 29 1 29 5 0 10 -48 14 -54 4z"/>
<path d="M2350 2308 c0 -4 4 -8 9 -8 6 0 12 4 15 8 3 5 -1 9 -9 9 -8 0 -15 -4
-15 -9z"/>
<path d="M2411 2304 c0 -11 3 -14 6 -6 3 7 2 16 -1 19 -3 4 -6 -2 -5 -13z"/>
<path d="M2430 2312 c0 -12 19 -26 26 -19 2 2 -2 10 -11 17 -9 8 -15 8 -15 2z"/>
<path d="M2521 2308 c-1 -20 14 -24 25 -6 4 6 3 8 -4 4 -5 -3 -13 0 -15 6 -3
8 -6 6 -6 -4z"/>
<path d="M2570 2305 c0 -8 4 -15 10 -15 5 0 7 7 4 15 -4 8 -8 15 -10 15 -2 0
-4 -7 -4 -15z"/>
<path d="M2185 2250 c-3 -5 -1 -10 4 -10 6 0 11 5 11 10 0 6 -2 10 -4 10 -3 0
-8 -4 -11 -10z"/>
<path d="M2310 2251 c0 -5 5 -13 10 -16 6 -3 10 -2 10 4 0 5 -4 13 -10 16 -5
3 -10 2 -10 -4z"/>
<path d="M2381 2244 c0 -11 3 -14 6 -6 3 7 2 16 -1 19 -3 4 -6 -2 -5 -13z"/>
<path d="M2470 2240 c0 -5 5 -10 11 -10 5 0 7 5 4 10 -3 6 -8 10 -11 10 -2 0
-4 -4 -4 -10z"/>
<path d="M2576 2234 c-11 -8 -16 -14 -10 -14 13 0 39 18 34 24 -3 2 -14 -2
-24 -10z"/>
<path d="M2727 2237 c-3 -8 1 -14 8 -14 7 0 11 6 8 14 -3 7 -6 13 -8 13 -2 0
-5 -6 -8 -13z"/>
<path d="M1277 4603 c-4 -3 -7 -19 -7 -35 0 -33 -10 -36 -28 -8 -7 11 -18 20
-26 20 -17 0 -32 -53 -16 -58 6 -2 15 -15 21 -29 11 -30 20 -25 45 26 12 26
26 41 37 41 19 0 41 18 44 35 2 11 -60 18 -70 8z"/>
<path d="M1982 4588 c5 -15 48 -18 48 -3 0 6 -11 11 -26 13 -18 3 -25 0 -22
-10z"/>
<path d="M1160 4566 c0 -2 7 -7 16 -10 8 -3 12 -2 9 4 -6 10 -25 14 -25 6z"/>
<path d="M1125 4550 c-3 -6 1 -7 9 -4 18 7 21 14 7 14 -6 0 -13 -4 -16 -10z"/>
<path d="M2118 4543 c7 -3 16 -2 19 1 4 3 -2 6 -13 5 -11 0 -14 -3 -6 -6z"/>
<path d="M1843 4532 c-8 -5 -9 -13 -3 -22 7 -12 10 -12 16 3 8 21 3 29 -13 19z"/>
<path d="M2191 4520 c-14 -3 -26 -10 -28 -17 -6 -16 31 -22 46 -6 18 20 10 30
-18 23z"/>
<path d="M1670 4480 c0 -13 11 -13 30 0 12 8 11 10 -7 10 -13 0 -23 -4 -23
-10z"/>
<path d="M1055 4461 c4 -7 -1 -21 -11 -32 -15 -17 -15 -19 -1 -19 10 0 27 -21
42 -50 17 -34 30 -48 40 -44 13 5 13 8 0 20 -19 19 -43 72 -47 103 -2 14 -9
26 -17 29 -9 3 -11 0 -6 -7z"/>
<path d="M1106 4445 c-3 -8 -1 -15 4 -15 6 0 10 7 10 15 0 8 -2 15 -4 15 -2 0
-6 -7 -10 -15z"/>
<path d="M1590 4451 c0 -6 4 -13 10 -16 6 -3 7 1 4 9 -7 18 -14 21 -14 7z"/>
<path d="M1665 4450 c3 -5 8 -10 11 -10 2 0 4 5 4 10 0 6 -5 10 -11 10 -5 0
-7 -4 -4 -10z"/>
<path d="M1310 4422 c0 -7 25 -31 46 -44 5 -4 10 2 10 12 0 10 -3 17 -7 14 -4
-2 -12 3 -19 11 -13 16 -30 20 -30 7z"/>
<path d="M1520 4404 c0 -8 5 -12 10 -9 6 4 8 11 5 16 -9 14 -15 11 -15 -7z"/>
<path d="M1483 4385 c-7 -20 2 -29 21 -22 9 4 13 13 10 22 -8 19 -23 19 -31 0z"/>
<path d="M1144 4278 c3 -13 6 -31 6 -40 0 -10 7 -18 15 -18 11 0 15 11 15 40
0 34 -3 40 -21 40 -17 0 -20 -4 -15 -22z"/>
<path d="M835 4220 c3 -5 8 -10 11 -10 2 0 4 5 4 10 0 6 -5 10 -11 10 -5 0 -7
-4 -4 -10z"/>
<path d="M1037 4160 c7 -40 9 -45 16 -33 3 4 -1 22 -8 38 l-14 30 6 -35z"/>
<path d="M990 4150 c0 -5 5 -10 11 -10 5 0 7 5 4 10 -3 6 -8 10 -11 10 -2 0
-4 -4 -4 -10z"/>
<path d="M4000 3840 c0 -5 5 -10 10 -10 6 0 10 5 10 10 0 6 -4 10 -10 10 -5 0
-10 -4 -10 -10z"/>
<path d="M4525 3760 c4 -6 11 -8 16 -5 14 9 11 15 -7 15 -8 0 -12 -5 -9 -10z"/>
<path d="M740 3438 c20 -9 22 -12 8 -15 -11 -3 -17 -13 -15 -26 3 -27 19 -40
30 -24 7 9 10 9 14 0 2 -7 11 -13 20 -13 10 0 12 -6 8 -20 -8 -25 19 -27 43
-3 13 13 14 17 3 21 -18 6 -51 40 -51 52 0 6 7 10 16 10 12 0 14 3 6 13 -6 7
-33 14 -59 15 -43 1 -45 0 -23 -10z"/>
<path d="M4740 3399 c0 -5 5 -7 10 -4 6 3 10 8 10 11 0 2 -4 4 -10 4 -5 0 -10
-5 -10 -11z"/>
<path d="M740 3330 c0 -5 5 -10 10 -10 6 0 10 5 10 10 0 6 -4 10 -10 10 -5 0
-10 -4 -10 -10z"/>
<path d="M800 3254 c0 -32 4 -44 13 -41 6 2 12 12 13 23 0 10 6 29 12 42 12
20 11 22 -13 22 -23 0 -25 -3 -25 -46z"/>
<path d="M4112 3204 c-11 -12 -11 -17 1 -29 13 -12 16 -11 21 8 11 41 2 49
-22 21z"/>
<path d="M4195 3210 c3 -5 10 -10 16 -10 5 0 9 5 9 10 0 6 -7 10 -16 10 -8 0
-12 -4 -9 -10z"/>
<path d="M4851 3004 c0 -11 3 -14 6 -6 3 7 2 16 -1 19 -3 4 -6 -2 -5 -13z"/>
<path d="M4867 2923 c-4 -6 0 -24 8 -39 12 -23 15 -25 14 -9 -1 31 -15 60 -22
48z"/>
<path d="M4472 2900 c-11 -18 -10 -20 12 -20 20 0 36 16 36 36 0 13 -37 1 -48
-16z"/>
<path d="M585 2807 c-4 -10 -5 -21 -1 -24 10 -10 18 4 13 24 -4 17 -4 17 -12
0z"/>
<path d="M560 2555 c0 -33 9 -42 35 -35 6 2 18 2 28 2 9 0 17 3 17 9 0 5 -6 9
-13 9 -8 0 -20 11 -27 25 -20 37 -40 32 -40 -10z"/>
<path d="M632 2490 c0 -14 2 -19 5 -12 2 6 2 18 0 25 -3 6 -5 1 -5 -13z"/>
<path d="M4896 2493 c-4 -9 -2 -21 4 -27 7 -7 10 -2 10 17 0 31 -5 34 -14 10z"/>
<path d="M580 2489 c0 -5 5 -7 10 -4 6 3 10 8 10 11 0 2 -4 4 -10 4 -5 0 -10
-5 -10 -11z"/>
<path d="M4902 2345 c0 -16 2 -22 5 -12 2 9 2 23 0 30 -3 6 -5 -1 -5 -18z"/>
<path d="M675 2189 c-8 -12 11 -29 33 -29 19 0 10 34 -10 38 -9 2 -19 -2 -23
-9z"/>
<path d="M4320 1832 c0 -15 5 -19 20 -15 24 6 21 26 -3 31 -11 2 -17 -3 -17
-16z"/>
<path d="M786 1782 c-3 -6 1 -13 10 -16 23 -9 28 -2 10 13 -8 7 -17 8 -20 3z"/>
<path d="M4220 1627 c0 -31 3 -34 21 -30 26 7 23 56 -3 61 -14 3 -18 -4 -18
-31z"/>
<path d="M4224 1546 c-3 -21 -4 -39 -1 -42 3 -4 9 10 13 30 3 21 4 39 1 42 -3
4 -9 -10 -13 -30z"/>
<path d="M285 1510 c3 -5 8 -10 11 -10 2 0 4 5 4 10 0 6 -5 10 -11 10 -5 0 -7
-4 -4 -10z"/>
<path d="M3971 1511 c-17 -11 -10 -56 9 -56 9 0 15 10 16 28 1 31 -6 39 -25
28z"/>
<path d="M4010 1505 c-8 -9 -8 -15 -2 -15 12 0 26 19 19 26 -2 2 -10 -2 -17
-11z"/>
<path d="M995 1430 c-3 -5 -1 -10 4 -10 6 0 11 5 11 10 0 6 -2 10 -4 10 -3 0
-8 -4 -11 -10z"/>
<path d="M3760 1315 c0 -20 5 -25 25 -25 26 0 29 7 19 34 -10 27 -44 20 -44
-9z"/>
<path d="M3600 1276 c0 -9 7 -12 20 -9 11 3 20 9 20 14 0 5 -9 9 -20 9 -11 0
-20 -6 -20 -14z"/>
<path d="M1125 1129 c-4 -6 -5 -12 -2 -15 7 -7 37 7 37 17 0 13 -27 11 -35 -2z"/>
<path d="M1330 1110 c0 -5 5 -10 11 -10 5 0 7 5 4 10 -3 6 -8 10 -11 10 -2 0
-4 -4 -4 -10z"/>
<path d="M3361 994 c0 -11 3 -14 6 -6 3 7 2 16 -1 19 -3 4 -6 -2 -5 -13z"/>
<path d="M3273 963 c-15 -5 -18 -43 -4 -43 9 0 26 39 19 44 -1 2 -9 1 -15 -1z"/>
<path d="M1727 823 c-13 -12 -7 -22 13 -20 11 1 20 7 20 14 0 14 -22 18 -33 6z"/>
<path d="M3312 808 c6 -18 28 -21 28 -4 0 9 -7 16 -16 16 -9 0 -14 -5 -12 -12z"/>
<path d="M2988 803 c7 -3 16 -2 19 1 4 3 -2 6 -13 5 -11 0 -14 -3 -6 -6z"/>
<path d="M1687 773 c-13 -12 -7 -33 8 -33 8 0 15 9 15 20 0 20 -11 26 -23 13z"/>
<path d="M2850 546 c0 -2 7 -6 15 -10 8 -3 15 -1 15 4 0 6 -7 10 -15 10 -8 0
-15 -2 -15 -4z"/>
<path d="M2340 505 c0 -8 5 -15 10 -15 6 0 10 7 10 15 0 8 -4 15 -10 15 -5 0
-10 -7 -10 -15z"/>
<path d="M2590 490 c0 -5 5 -10 10 -10 6 0 10 5 10 10 0 6 -4 10 -10 10 -5 0
-10 -4 -10 -10z"/>
<path d="M1437 443 c-4 -3 -7 -11 -7 -17 0 -6 5 -5 12 2 6 6 9 14 7 17 -3 3
-9 2 -12 -2z"/>
<path d="M2206 205 c-3 -8 -1 -15 4 -15 6 0 10 7 10 15 0 8 -2 15 -4 15 -2 0
-6 -7 -10 -15z"/>
<path d="M2140 145 c-10 -12 -9 -15 6 -15 14 0 16 -2 6 -9 -11 -6 -10 -10 4
-15 11 -4 20 -2 22 4 2 6 11 18 20 27 16 16 16 16 0 10 -10 -3 -20 -2 -23 3
-9 14 -21 12 -35 -5z"/>
<path d="M2915 130 c-3 -5 1 -10 9 -10 9 0 16 5 16 10 0 6 -4 10 -9 10 -6 0
-13 -4 -16 -10z"/>
</g>
</svg>
